<?xml version="1.0" encoding="UTF-8"?>
<svg width="128px" height="128px" viewBox="0 0 128 128" version="1.1" xmlns="http://www.w3.org/2000/svg" xmlns:xlink="http://www.w3.org/1999/xlink">
    <!-- Generator: Sketch 53 (72520) - https://sketchapp.com -->
    <title>abundant</title>
    <desc>Created with Sketch.</desc>
    <defs>
        <circle id="path-1" cx="64" cy="64" r="64"></circle>
        <path d="M63.9579868,0.617083785 L63.9579868,7.36066335 C73.2796782,14.1008032 79.3846934,25.0735238 79.3846934,37.4771698 C79.3846934,57.9349303 62.8344588,74.5797563 42.4929583,74.5797563 C22.1497478,74.5797563 5.59951316,57.9349303 5.59951316,37.4771698 C5.59951316,25.0735238 11.7045284,14.1008032 21.0262198,7.36066335 L21.0262198,0.617083785 C8.45878081,8.04860821 0.000684035323,21.7851473 0.000684035323,37.4771698 C0.000684035323,61.0410013 19.0630384,80.2105851 42.4929583,80.2105851 C65.9228783,80.2105851 84.9835225,61.0410013 84.9835225,37.4771698 C84.9835225,21.7851473 76.5254258,8.04860821 63.9579868,0.617083785" id="path-3"></path>
        <path d="M24.5559447,43.3162427 L24.5559447,33.7555137 C24.5559447,30.8623177 25.3730582,28.9161752 27.0686966,27.2041941 C28.7626291,25.4939476 38.170522,19.7110248 38.6976369,19.2964721 C39.223046,18.883654 40.0401595,18.7067319 40.0401595,20.359739 L40.0401595,29.6845719 C40.0401595,31.6307145 39.8661604,35.1136506 36.6505886,37.7102419 C33.4384286,40.3068333 27.2444015,43.8487434 26.3078769,44.377775 C25.3730582,44.9102757 24.5559447,44.9675152 24.5559447,43.3162427 Z M24.5559447,19.8848247 L24.5559447,12.0603601 C24.5559447,9.69446128 25.2246472,8.1021628 26.6115224,6.70066261 C27.9983977,5.30089695 35.6970053,0.567364743 36.1268854,0.230865935 C36.5567656,-0.107367403 37.225468,-0.251333388 37.225468,1.09986543 L37.225468,8.7283281 C37.225468,10.3223611 37.0821746,13.1721938 34.4534234,15.2952585 C31.8229663,17.4217922 26.7548158,20.3184572 25.9905844,20.7538242 C25.2246472,21.1874567 24.5559447,21.2360235 24.5559447,19.8848247 Z M24.5559447,71.1297772 L24.5559447,59.1840695 C24.5559447,55.5710436 25.577763,53.1392327 27.6947522,51.0022918 C29.8117413,48.8618818 41.5652105,41.6375646 42.2219718,41.1206747 C42.880439,40.6037848 43.9022573,40.3834995 43.9022573,42.4475901 L43.9022573,54.0984277 C43.9022573,56.5302387 43.6821996,60.8821743 39.6665731,64.1257453 C35.6526526,67.3693163 27.913104,71.7941021 26.7462864,72.4584271 C25.577763,73.119283 24.5559447,73.1938678 24.5559447,71.1297772 Z M19.3682125,19.8848247 C19.3682125,21.2360235 18.6978042,21.1874567 17.9335728,20.7538242 C17.1676356,20.3184572 12.0994851,17.4217922 9.47073385,15.2952585 C6.84027674,13.1721938 6.69698336,10.3223611 6.69698336,8.7283281 L6.69698336,1.09986543 C6.69698336,-0.251333388 7.36568582,-0.107367403 7.79727184,0.230865935 C8.22715199,0.567364743 15.9240537,5.30089695 17.3109289,6.70066261 C18.6978042,8.1021628 19.3682125,9.69446128 19.3682125,12.0603601 L19.3682125,19.8848247 Z M19.3682125,43.3162427 C19.3682125,44.9675152 18.5493932,44.9102757 17.6145744,44.377775 C16.6797557,43.8487434 10.4857286,40.3068333 7.27186277,37.7102419 C4.05799689,35.1136506 3.88229191,31.6307145 3.88229191,29.6845719 L3.88229191,20.359739 C3.88229191,18.7067319 4.70111124,18.883654 5.22652031,19.2964721 C5.75363526,19.7110248 15.1598223,25.4939476 16.8554607,27.2041941 C18.5493932,28.9161752 19.3682125,30.8623177 19.3682125,33.7555137 L19.3682125,43.3162427 Z M19.3682125,71.1297772 C19.3682125,73.1938678 18.3446883,73.119283 17.1778708,72.4584271 C16.0093474,71.7941021 8.2715047,67.3693163 4.25587823,64.1257453 C0.24025176,60.8821743 0.021899938,56.5302387 0.021899938,54.0984277 L0.021899938,42.4475901 C0.021899938,40.3834995 1.04371823,40.6037848 1.70047957,41.1206747 C2.35724091,41.6375646 14.1107101,48.8618818 16.2294051,51.0022918 C18.3446883,53.1392327 19.3682125,55.5710436 19.3682125,59.1840695 L19.3682125,71.1297772 Z" id="path-5"></path>
        <circle id="path-7" cx="64" cy="64" r="64"></circle>
    </defs>
    <g id="Page-1" stroke="none" stroke-width="1" fill="none" fill-rule="evenodd">
        <g id="Abundant-Icon">
            <g id="abundant">
                <mask id="mask-2" fill="white">
                    <use xlink:href="#path-1"></use>
                </mask>
                <use id="Oval" fill="#D8D8D8" xlink:href="#path-1"></use>
                <rect id="Background-White" fill="#79A657" mask="url(#mask-2)" x="0" y="0" width="128" height="128"></rect>
                <g id="logo" mask="url(#mask-2)">
                    <g transform="translate(21.851562, 23.991935)">
                        <g id="circle" transform="translate(0.148438, 3.008065)">
                            <mask id="mask-4" fill="white">
                                <use xlink:href="#path-3"></use>
                            </mask>
                            <use id="Mask" fill="#FFFFFF" xlink:href="#path-3"></use>
                            <g id="Circle" mask="url(#mask-4)" fill="#FFFFFF">
                                <g transform="translate(-2.730159, -5.491525)" id="Color">
                                    <rect x="0" y="0" width="502.349206" height="86.4915254"></rect>
                                </g>
                            </g>
                        </g>
                        <g id="wheat" transform="translate(20.148438, 0.008065)">
                            <mask id="mask-6" fill="white">
                                <use xlink:href="#path-5"></use>
                            </mask>
                            <use id="Mask" fill="#EDDD61" xlink:href="#path-5"></use>
                            <g id="Wheat-Color" mask="url(#mask-6)" fill="#F6D967">
                                <g transform="translate(-22.743961, -2.140762)" id="Color">
                                    <rect x="0" y="0" width="88.4251208" height="87.1290323"></rect>
                                </g>
                            </g>
                        </g>
                    </g>
                </g>
                <mask id="mask-8" fill="white">
                    <use xlink:href="#path-7"></use>
                </mask>
                <circle stroke-opacity="0.1" stroke="#000000" stroke-width="4" cx="64" cy="64" r="62"></circle>
            </g>
        </g>
    </g>
</svg>