<?xml version="1.0" encoding="UTF-8"?>
<svg width="128px" height="128px" viewBox="0 0 128 128" version="1.1" xmlns="http://www.w3.org/2000/svg" xmlns:xlink="http://www.w3.org/1999/xlink">
    <!-- Generator: Sketch 42 (36781) - http://www.bohemiancoding.com/sketch -->
    <title>icon</title>
    <desc>Created with Sketch.</desc>
    <defs>
        <circle id="path-1" cx="64" cy="64" r="64"></circle>
        <radialGradient cx="91.7822266%" cy="88.2763672%" fx="91.7822266%" fy="88.2763672%" r="105.639416%" id="radialGradient-3">
            <stop stop-color="#5FCAEA" offset="0%"></stop>
            <stop stop-color="#319ACF" offset="100%"></stop>
        </radialGradient>
        <rect id="path-4" x="0" y="0" width="128" height="128"></rect>
        <path d="M0.0936678832,79.6648728 C1.11128282,65.8471587 10.3790914,55.4737548 25.8710693,50.9907449 C29.2243796,50.018379 32.722875,51.9428531 33.6954599,55.2853605 C34.6649224,58.627868 32.7384863,62.1246451 29.3929818,63.0938944 C18.2636761,66.3117396 12.6264307,72.7536631 12.6264307,82.2404629 C12.6264307,91.9594462 20.9909726,99.8692682 31.2710228,99.8692682 L204.898495,99.8692682 C212.118727,99.8692682 217.991703,94.346729 217.991703,87.5588676 C217.991703,80.5434976 212.476226,75.8094473 205.58227,74.8962961 C202.16027,74.442837 198.632113,74.3290827 198.632113,74.3290827 C198.632113,74.3290827 200.547621,67.1563265 200.547621,59.2698788 C200.547621,42.2846426 186.701947,28.4627119 169.687176,28.4627119 C161.970504,28.4627119 154.558252,31.378251 148.819533,36.670165 L143.147943,41.8966312 L139.142079,35.3113461 C130.658891,21.3803359 115.856244,13.0638032 99.547104,13.0638032 L99.534615,13.0638032 C91.0420602,13.0638032 82.7399635,15.3794052 75.5228531,19.7612844 C72.5442144,21.5751207 68.6616807,20.6276873 66.8507682,17.6576084 C65.0398558,14.6875295 65.9827792,10.8074159 68.9614179,8.99981277 C78.1549206,3.41182589 88.7284635,0.460446313 99.534615,0.460446313 L99.5502263,0.460446313 C117.932548,0.460446313 134.813062,8.76295443 145.926756,22.9775714 C152.965898,18.3541589 161.189938,15.8609132 169.687176,15.8609132 C193.666154,15.8609132 213.17093,35.3347203 213.17093,59.2698788 C213.17093,60.7564765 213.097557,62.2368412 212.944566,63.7078561 C223.282378,66.7636403 230.619695,76.1491521 230.619695,87.5588676 C230.619695,101.295093 219.079812,112.469509 204.898495,112.469509 L31.2710228,112.469509 C14.8467948,112.469509 1.33902252,100.166148 0.0936678832,84.5920267 L0.0936678832,79.6648728 L0.0936678832,79.6648728 L0.0936678832,79.6648728 Z" id="path-6"></path>
    </defs>
    <g id="Page-1" stroke="none" stroke-width="1" fill="none" fill-rule="evenodd">
        <g id="icon">
            <g id="Page-1">
                <g id="icon">
                    <g id="Icon">
                        <g id="Mask">
                            <circle id="path-1" cx="64" cy="64" r="64"></circle>
                        </g>
                        <g id="Clipped">
                            <mask id="mask-2" fill="white">
                                <use xlink:href="#path-1"></use>
                            </mask>
                            <g id="path-1"></g>
                            <g id="Group-2" mask="url(#mask-2)">
                                <mask id="mask-5" fill="white">
                                    <use xlink:href="#path-4"></use>
                                </mask>
                                <use id="Rectangle-83-Copy" fill="url(#radialGradient-3)" xlink:href="#path-4"></use>
                                <g id="Group" mask="url(#mask-5)">
                                    <g transform="translate(14.400000, 24.000000)" id="realm_logo">
                                        <g transform="translate(-0.000000, 0.000000)">
                                            <path d="M59.2683531,32.7004754 C53.2954644,26.729152 50.0592391,0.585912735 50.0170885,0.400477587 C49.9624489,0.585912735 46.7355903,26.729152 40.7486515,32.7004754 C34.766396,38.6717988 10.6968723,41.9410672 10.6968723,41.9410672 C10.6968723,41.9410672 34.766396,45.2134521 40.7486515,51.1894504 C46.7355903,57.1560989 49.9624489,83.2946633 50.0170885,83.4832151 C50.0592391,83.2946633 53.2954644,57.1560989 59.2683531,51.1894504 C65.2568531,45.2134521 89.3263768,41.9410672 89.3263768,41.9410672 C89.3263768,41.9410672 65.2568531,38.6717988 59.2683531,32.7004754" id="Fill-17" fill="#FFFFFF"></path>
                                            <g id="Group-20" transform="translate(0.000000, 5.741502)">
                                                <mask id="mask-7" fill="white">
                                                    <use xlink:href="#path-6"></use>
                                                </mask>
                                                <use id="Clip-19" fill="#FFFFFF" xlink:href="#path-6"></use>
                                                <polygon id="Fill-18" mask="url(#mask-7)" points="0.0936678832 220.115391 426.4808 220.115391 426.4808 -5.34102473 0.0936678832 -5.34102473"></polygon>
                                            </g>
                                        </g>
                                    </g>
                                </g>
                            </g>
                        </g>
                    </g>
                    <circle id="Oval-2" stroke-opacity="0.1" stroke="#000000" stroke-width="4" cx="64" cy="64" r="62"></circle>
                </g>
            </g>
        </g>
    </g>
</svg>