<?xml version="1.0" encoding="UTF-8" standalone="no"?>
<svg width="128px" height="128px" viewBox="0 0 128 128" version="1.1" xmlns="http://www.w3.org/2000/svg" xmlns:xlink="http://www.w3.org/1999/xlink" xmlns:sketch="http://www.bohemiancoding.com/sketch/ns">
    <!-- Generator: Sketch 3.2.2 (9983) - http://www.bohemiancoding.com/sketch -->
    <title>icon</title>
    <desc>Created with Sketch.</desc>
    <defs>
        <circle id="path-1" cx="64" cy="64" r="64"></circle>
    </defs>
    <g id="Page-1" stroke="none" stroke-width="1" fill="none" fill-rule="evenodd" sketch:type="MSPage">
        <g id="icon" sketch:type="MSArtboardGroup">
            <g id="Icon" sketch:type="MSLayerGroup">
                <mask id="mask-2" sketch:name="Mask" fill="white">
                    <use xlink:href="#path-1"></use>
                </mask>
                <use id="Mask" sketch:type="MSShapeGroup" xlink:href="#path-1"></use>
                <g mask="url(#mask-2)" sketch:type="MSShapeGroup">
                    <rect id="Rectangle-1" fill="#FFFFFF" x="0" y="0" width="128" height="128"></rect>
                    <path d="M41.0345,116.975375 C41.027,116.988 41.025125,117.003625 41.0145,117.00975 C37.981625,122.267 33.10375,125.791 27.673875,127.24925 C22.2415,128.700625 16.250875,128.08925 10.996875,125.051375 C0.487,118.98875 -3.1155,105.543625 2.9515,95.035625 C5.988,89.778375 10.864125,86.253625 16.294625,84.796 C21.7295,83.341 27.717,83.956125 32.971,86.991 L52.001875,97.9765 L41.0345,116.975375 L41.0345,116.975375 Z" id="Shape" fill="#4FB3CF"></path>
                    <path d="M77.569125,112.739 L68.767375,127.986 L103.976125,127.986 L77.569125,112.739 Z" id="Shape" fill="#5F6062"></path>
                    <path d="M62.314625,103.929625 L62.31275,103.929625 L50.8465,123.7715 C49.928375,125.263625 48.9045,126.6685 47.789875,127.986 L51.381625,127.986 L55.017125,127.986 L67.2575,106.78275 L62.314625,103.929625 L62.314625,103.929625 Z" id="Shape" fill="#5F6062"></path>
                    <path d="M128,112.533 C120.234625,113.863125 112.317375,112.46125 105.409375,108.46875 L86.3735,97.482625 L83.519,102.425 L127.789,127.985875 L128,127.985875 L128,112.533 L128,112.533 Z" id="Shape" fill="#5F6062"></path>
                    <path d="M13.214875,73.292375 C21.95425,70.95125 31.0885,72.156 38.926,76.679625 L57.954875,87.668125 L57.957375,87.668125 L60.809375,82.729625 L60.809375,82.7265 L42.536375,72.17175 L42.511375,72.16225 L41.776,71.738 C25.597125,62.393875 20.037125,41.6345 29.378,25.454375 C33.902875,17.615625 41.209625,12.00875 49.9515,9.66725 C58.691375,7.326125 67.824375,8.528375 75.66275,13.05125 C91.837125,22.3945 97.4035,43.15775 88.06075,59.33775 L77.074125,78.365625 L82.013875,81.222 L82.0175,81.222 L92.766,62.603625 L92.7765,62.58175 L93.00425,62.188625 C97.531125,54.349125 104.83725,48.742875 113.57525,46.400875 C118.361125,45.12175 123.258875,44.906375 127.99975,45.71125 L127.99975,0.0725 L0,0 L0,80.24425 C3.695,77.200875 8.454,74.56925 13.214875,73.292375 L13.214875,73.292375 Z" id="Shape" fill="#5F6062"></path>
                    <path d="M116.659625,57.902125 C111.22475,59.359625 106.353,62.884375 103.315875,68.141625 C103.3115,68.15025 103.306375,68.16025 103.3015,68.169125 L92.3315,87.17175 L111.36375,98.1605 C116.602,101.185125 122.575125,101.8035 128,100.364125 L128,57.892625 C124.23,56.88375 120.32025,56.921375 116.659625,57.902125 L116.659625,57.902125 Z" id="Shape" fill="#E36F1E"></path>
                    <path d="M71.12275,88.679625 L68.269,93.62125 L73.212625,96.474375 L76.0645,91.53275 L71.12275,88.679625 L71.12275,88.679625 Z" id="Shape" fill="#5F6062"></path>
                    <path d="M86.400375,97.44575 L92.328625,87.17175 L97.1895,89.978125 L86.400375,97.44575 Z" id="Shape" opacity="0.25" fill="#5F6062"></path>
                    <path d="M77.03225,78.3405 L66.764375,72.414875 L69.569375,67.554625 L77.03225,78.3405 Z" id="Shape" opacity="0.25" fill="#5F6062"></path>
                    <path d="M57.932375,87.70875 L52.001875,97.9765 L47.140875,95.172625 L57.932375,87.70875 Z" id="Shape" opacity="0.25" fill="#5F6062"></path>
                    <path d="M62.317125,103.929625 L67.257625,106.78275 L73.212625,96.474375 L68.269,93.62125 L62.317125,103.929625 Z" id="Shape" opacity="0.25" fill="#5F6062"></path>
                    <path d="M83.5235,102.425 L77.569125,112.73275 L103.976125,127.982875 L106.021,127.982875 L127.785875,127.982875 L83.5235,102.425 Z" id="Shape" opacity="0.25" fill="#5F6062"></path>
                    <path d="M69.70975,23.36575 C64.45125,20.327875 58.466875,19.713375 53.03325,21.170875 C47.600875,22.626 42.7255,26.15325 39.692625,31.410375 C33.625,41.9185 37.22175,55.3605 47.73225,61.429375 C47.741625,61.429375 47.754125,61.43875 47.76475,61.442 L66.764375,72.415 L77.751625,53.38475 C83.82325,42.870375 80.21875,29.434 69.70975,23.36575 L69.70975,23.36575 Z" id="Shape" fill="#8DC63F"></path>
                </g>
            </g>
            <circle id="Oval-2" stroke-opacity="0.1" stroke="#000000" stroke-width="4" sketch:type="MSShapeGroup" cx="64" cy="64" r="62"></circle>
        </g>
    </g>
</svg>