<?xml version="1.0" encoding="UTF-8"?>
<svg width="1024px" height="1024px" viewBox="0 0 1024 1024" version="1.1" xmlns="http://www.w3.org/2000/svg" xmlns:xlink="http://www.w3.org/1999/xlink">
    <title>Icon Copy 4-ios</title>
    <defs>
        <path d="M292.282913,-1.18085795e-14 L731.717087,1.18085795e-14 C833.350224,-6.86112476e-15 870.204855,10.5821197 907.36041,30.4531282 C944.515966,50.3241368 973.675863,79.4840342 993.546872,116.63959 C1013.41788,153.795145 1024,190.649776 1024,292.282913 L1024,731.717087 C1024,833.350224 1013.41788,870.204855 993.546872,907.36041 C973.675863,944.515966 944.515966,973.675863 907.36041,993.546872 C870.204855,1013.41788 833.350224,1024 731.717087,1024 L292.282913,1024 C190.649776,1024 153.795145,1013.41788 116.63959,993.546872 C79.4840342,973.675863 50.3241368,944.515966 30.4531282,907.36041 C10.5821197,870.204855 4.57408317e-15,833.350224 -7.87238634e-15,731.717087 L7.87238634e-15,292.282913 C-4.57408317e-15,190.649776 10.5821197,153.795145 30.4531282,116.63959 C50.3241368,79.4840342 79.4840342,50.3241368 116.63959,30.4531282 C153.795145,10.5821197 190.649776,6.86112476e-15 292.282913,-1.18085795e-14 Z" id="path-1"></path>
        <linearGradient x1="75.0659322%" y1="100%" x2="75.0659322%" y2="0%" id="linearGradient-3">
            <stop stop-color="#FFFFFF" stop-opacity="0" offset="0%"></stop>
            <stop stop-color="#FFFFFF" offset="100%"></stop>
        </linearGradient>
    </defs>
    <g id="Icon-Copy-4" stroke="none" stroke-width="1" fill="none" fill-rule="evenodd">
        <mask id="mask-2" fill="white">
            <use xlink:href="#path-1"></use>
        </mask>
        <use id="Path" fill="#000000" xlink:href="#path-1"></use>
        <rect id="Rectangle" fill="#388BCD" mask="url(#mask-2)" x="0" y="0" width="1024" height="1024"></rect>
        <rect id="Rectangle-Copy" fill-opacity="0.5" fill="url(#linearGradient-3)" style="mix-blend-mode: soft-light;" mask="url(#mask-2)" x="0" y="0" width="1024" height="1024"></rect>
        <path d="M590.8,185.2 C661.795531,185.2 719.003246,205.07455 762.87508,243.746758 C807.358241,282.957841 830.4,338.538398 830.4,411.3 C830.4,458.599933 820.647625,503.66132 801.152675,546.486292 C781.469757,589.724177 755.542115,624.306761 723.614756,650.429146 C699.688184,670.005432 674.775266,682.436799 648.966688,688.000627 L648.517,688.095 L648.7001,688.279257 C652.380245,692.010685 655.686777,696.328756 658.596443,701.259002 L658.973712,701.905551 C664.988022,712.330356 668.4,725.478413 668.4,741.6 C668.4,771.206238 654.926304,796.577895 626.192213,816.88332 C601.808693,834.11434 572.112335,847.086948 536.981077,855.544473 C502.944972,863.73835 470.481998,867.8 439.6,867.8 C366.751141,867.8 308.687521,848.042636 264.887807,809.758442 C220.912782,771.321012 197.3,708.420827 197.3,619.2 C197.3,542.052076 214.742051,470.404642 249.549816,404.238529 C284.475919,337.847468 331.871237,284.8725 391.646518,245.232051 C451.996058,205.210777 518.380524,185.2 590.8,185.2 Z M598,290 C550.999331,290 506.293173,305.266088 463.754464,335.374655 C420.086357,366.282601 385.120751,406.872332 358.75487,457.052559 C332.417901,507.177757 319.2,559.41895 319.2,613.8 C319.2,662.940494 328.514731,699.649242 349.843735,722.577921 C370.642918,744.937044 402.786675,754.9 445,754.9 C478.650468,754.9 510.106913,748.323 539.349849,735.080916 C564.140082,723.85515 584.748709,709.262235 601.061467,691.160994 L601.654,690.499 L601.166748,690.439765 C583.506731,688.195891 568.76677,682.067242 556.746228,672.558266 L556.209812,672.130234 C550.007955,667.138495 544.788315,661.40636 540.601736,654.905282 C510.106449,685.925184 477.972891,700.4 445,700.4 C415.283494,700.4 392.544554,689.565252 376.225082,668.971633 C361.351842,650.20302 353,623.372035 353,587.7 C353,550.132329 361.645869,512.374548 379.140812,474.468836 C396.55873,436.730015 418.897339,405.674212 445.981734,381.169284 C475.550471,354.416617 505.990717,341.8 536.8,341.8 C549.133333,341.8 560.194117,344.386379 570.044272,349.311456 C573.353049,350.965845 576.738144,353.040159 580.182038,355.558847 L589.101893,342.441413 L691.625496,353.377264 L644.471372,533.793039 C643.679077,537.453647 641.3894,546.368781 637.554527,560.52831 C634.220928,572.836986 632.4,583.083554 632.4,591.3 C632.4,594.070036 632.596861,596.600704 633.149414,598.848813 C640.526139,596.994009 648.08631,587.999687 657.220854,576.835244 C672.176282,558.556387 684.776385,534.804897 695.293695,505.743909 C705.906384,476.419372 711.2,445.836565 711.2,414 C711.2,373.49436 702.117466,342.046016 681.97035,320.590647 C662.287802,299.630011 634.017843,290 598,290 Z M552.628,431.956 L552.450539,432.004054 C544.371322,434.241783 536.608475,441.633395 528.293788,451.578413 C514.283951,468.335276 502.691835,488.844552 493.355963,513.007986 C484.140186,536.860585 479.4,559.343086 479.4,580.5 C479.4,588.077578 479.793591,594.138215 482.29857,598.034848 C482.609999,598.519293 483.253759,598.3 483.7,598.3 C489.449436,598.3 495.209738,596.328606 501.10729,592.904221 C506.115255,589.99637 510.108827,586.670267 512.767079,582.631676 L552.628,431.956 Z" id="Shape" stroke="#AEAEAE" stroke-width="40" fill="#FFFFFF" fill-rule="nonzero" mask="url(#mask-2)"></path>
    </g>
</svg>