<?xml version="1.0" encoding="UTF-8"?>
<svg width="1024px" height="1024px" viewBox="0 0 1024 1024" version="1.1" xmlns="http://www.w3.org/2000/svg" xmlns:xlink="http://www.w3.org/1999/xlink">
    <title>IconRendered-ios</title>
    <defs>
        <path d="M292.282913,-1.18085795e-14 L731.717087,1.18085795e-14 C833.350224,-6.86112476e-15 870.204855,10.5821197 907.36041,30.4531282 C944.515966,50.3241368 973.675863,79.4840342 993.546872,116.63959 C1013.41788,153.795145 1024,190.649776 1024,292.282913 L1024,731.717087 C1024,833.350224 1013.41788,870.204855 993.546872,907.36041 C973.675863,944.515966 944.515966,973.675863 907.36041,993.546872 C870.204855,1013.41788 833.350224,1024 731.717087,1024 L292.282913,1024 C190.649776,1024 153.795145,1013.41788 116.63959,993.546872 C79.4840342,973.675863 50.3241368,944.515966 30.4531282,907.36041 C10.5821197,870.204855 4.57408317e-15,833.350224 -7.87238634e-15,731.717087 L7.87238634e-15,292.282913 C-4.57408317e-15,190.649776 10.5821197,153.795145 30.4531282,116.63959 C50.3241368,79.4840342 79.4840342,50.3241368 116.63959,30.4531282 C153.795145,10.5821197 190.649776,6.86112476e-15 292.282913,-1.18085795e-14 Z" id="path-1"></path>
        <linearGradient x1="75.0659322%" y1="100%" x2="75.0659322%" y2="0%" id="linearGradient-3">
            <stop stop-color="#FFFFFF" stop-opacity="0" offset="0%"></stop>
            <stop stop-color="#FFFFFF" offset="100%"></stop>
        </linearGradient>
        <linearGradient x1="50%" y1="0%" x2="50%" y2="100%" id="linearGradient-4">
            <stop stop-color="#007BCD" offset="0%"></stop>
            <stop stop-color="#005CBA" offset="100%"></stop>
        </linearGradient>
    </defs>
    <g id="IconRendered" stroke="none" stroke-width="1" fill="none" fill-rule="evenodd">
        <mask id="mask-2" fill="white">
            <use xlink:href="#path-1"></use>
        </mask>
        <use id="Path" fill="#000000" xlink:href="#path-1"></use>
        <rect id="Rectangle" fill="#388BCD" mask="url(#mask-2)" x="0" y="0" width="1024" height="1024"></rect>
        <rect id="Rectangle-Copy" fill-opacity="0.5" fill="url(#linearGradient-3)" style="mix-blend-mode: soft-light;" mask="url(#mask-2)" x="0" y="0" width="1024" height="1024"></rect>
        <path d="M588.8,185.2 C659.795531,185.2 717.003246,205.07455 760.87508,243.746758 C805.358241,282.957841 828.4,338.538398 828.4,411.3 C828.4,458.599933 818.647625,503.66132 799.152675,546.486292 C779.469757,589.724177 753.542115,624.306761 721.614756,650.429146 C697.688184,670.005432 672.775266,682.436799 646.966688,688.000627 L646.517,688.095 L646.7001,688.279257 C650.380245,692.010685 653.686777,696.328756 656.596443,701.259002 L656.973712,701.905551 C662.988022,712.330356 666.4,725.478413 666.4,741.6 C666.4,771.206238 652.926304,796.577895 624.192213,816.88332 C599.808693,834.11434 570.112335,847.086948 534.981077,855.544473 C500.944972,863.73835 468.481998,867.8 437.6,867.8 C364.751141,867.8 306.687521,848.042636 262.887807,809.758442 C218.912782,771.321012 195.3,708.420827 195.3,619.2 C195.3,542.052076 212.742051,470.404642 247.549816,404.238529 C282.475919,337.847468 329.871237,284.8725 389.646518,245.232051 C449.996058,205.210777 516.380524,185.2 588.8,185.2 Z M596,290 C548.999331,290 504.293173,305.266088 461.754464,335.374655 C418.086357,366.282601 383.120751,406.872332 356.75487,457.052559 C330.417901,507.177757 317.2,559.41895 317.2,613.8 C317.2,662.940494 326.514731,699.649242 347.843735,722.577921 C368.642918,744.937044 400.786675,754.9 443,754.9 C476.650468,754.9 508.106913,748.323 537.349849,735.080916 C562.140082,723.85515 582.748709,709.262235 599.061467,691.160994 L599.654,690.499 L599.166748,690.439765 C581.506731,688.195891 566.76677,682.067242 554.746228,672.558266 L554.209812,672.130234 C548.007955,667.138495 542.788315,661.40636 538.601736,654.905282 C508.106449,685.925184 475.972891,700.4 443,700.4 C413.283494,700.4 390.544554,689.565252 374.225082,668.971633 C359.351842,650.20302 351,623.372035 351,587.7 C351,550.132329 359.645869,512.374548 377.140812,474.468836 C394.55873,436.730015 416.897339,405.674212 443.981734,381.169284 C473.550471,354.416617 503.990717,341.8 534.8,341.8 C547.133333,341.8 558.194117,344.386379 568.044272,349.311456 C571.353049,350.965845 574.738144,353.040159 578.182038,355.558847 L587.101893,342.441413 L689.625496,353.377264 L642.471372,533.793039 C641.679077,537.453647 639.3894,546.368781 635.554527,560.52831 C632.220928,572.836986 630.4,583.083554 630.4,591.3 C630.4,594.070036 630.596861,596.600704 631.149414,598.848813 C638.526139,596.994009 646.08631,587.999687 655.220854,576.835244 C670.176282,558.556387 682.776385,534.804897 693.293695,505.743909 C703.906384,476.419372 709.2,445.836565 709.2,414 C709.2,373.49436 700.117466,342.046016 679.97035,320.590647 C660.287802,299.630011 632.017843,290 596,290 Z M550.628,431.956 L550.450539,432.004054 C542.371322,434.241783 534.608475,441.633395 526.293788,451.578413 C512.283951,468.335276 500.691835,488.844552 491.355963,513.007986 C482.140186,536.860585 477.4,559.343086 477.4,580.5 C477.4,588.077578 477.793591,594.138215 480.29857,598.034848 C480.609999,598.519293 481.253759,598.3 481.7,598.3 C487.449436,598.3 493.209738,596.328606 499.10729,592.904221 C504.115255,589.99637 508.108827,586.670267 510.767079,582.631676 L550.628,431.956 Z" id="Shape-Copy" stroke="url(#linearGradient-4)" stroke-width="40" fill="#FFFFFF" fill-rule="nonzero" mask="url(#mask-2)"></path>
    </g>
</svg>