<svg width="129px" height="129px" viewBox="0 0 129 129" version="1.1" xmlns="http://www.w3.org/2000/svg" xmlns:xlink="http://www.w3.org/1999/xlink">
    <title>blog</title>
    <desc>Created with Sketch.</desc>
    <defs></defs>
    <g id="blog" stroke="none" stroke-width="1" fill="none" fill-rule="evenodd">
        <path d="M0.0845622857,64.6811406 C0.0845622857,100.027426 28.7382766,128.681141 64.0845623,128.681141 C99.430848,128.681141 128.084562,100.027426 128.084562,64.6811406 C128.084562,29.3348549 99.430848,0.681140571 64.0845623,0.681140571 C28.7382766,0.681140571 0.0845622857,29.3348549 0.0845622857,64.6811406 Z M4.65599086,64.6811406 C4.65599086,31.8605691 31.2639909,5.25256914 64.0845623,5.25256914 C96.9051337,5.25256914 123.513134,31.8605691 123.513134,64.6811406 C123.513134,97.501712 96.9051337,124.109712 64.0845623,124.109712 C31.2639909,124.109712 4.65599086,97.501712 4.65599086,64.6811406 Z" id="Outline" fill="#000000" fill-rule="nonzero"></path>
        <g id="830-pencil-selected@2x" transform="translate(30.000000, 30.000000)" fill="#000000" fill-rule="nonzero">
            <path d="M5.28958929,44.7181607 L5.31053571,44.7391071 C5.15528571,44.90175 5.03330357,45.0988929 4.98155357,45.3280714 L4.95691071,45.3231429 L0.0283392857,67.5017143 L0.0468214286,67.5054107 C0.0271071429,67.5904286 0,67.6754464 0,67.7678571 C0,68.4492321 0.550767857,69 1.23214286,69 C1.32455357,69 1.40833929,68.9667321 1.49458929,68.9470179 L1.49951786,68.9716607 L23.6780893,64.0430893 L23.6731607,64.0184464 C23.9048036,63.9666964 24.1191964,63.8730536 24.2818393,63.7104107 L58.5267857,29.4654643 L39.5345357,10.4732143 L5.28958929,44.7181607 Z M22.1785714,61.849875 L2.854875,66.1463571 L7.150125,46.8214286 L14.7857143,46.8214286 L14.7857143,52.9821429 C14.7857143,53.6635179 15.3364821,54.2142857 16.0178571,54.2142857 L22.1785714,54.2142857 L22.1785714,61.849875 Z M68.6389821,17.6110179 L51.3889821,0.361017857 C51.1659643,0.138 50.8579286,0 50.5178571,0 C50.1777857,0 49.86975,0.138 49.6467321,0.361017857 L41.2767857,8.73096429 L60.2690357,27.7232143 L68.6389821,19.3545 C68.862,19.13025 69,18.8222143 69,18.4821429 C69,18.1420714 68.862,17.8340357 68.6389821,17.6110179 Z" id="Shape"></path>
        </g>
    </g>
</svg>