<svg width="128px" height="128px" viewBox="0 0 128 128" version="1.1" xmlns="http://www.w3.org/2000/svg" xmlns:xlink="http://www.w3.org/1999/xlink" xmlns:sketch="http://www.bohemiancoding.com/sketch/ns">
    <title>googleplus</title>
    <desc>Created with Sketch.</desc>
    <defs></defs>
    <g id="Page-1" stroke="none" stroke-width="1" fill="none" fill-rule="evenodd" sketch:type="MSPage">
        <g id="googleplus" sketch:type="MSArtboardGroup" fill="#000000">
            <path d="M63.686848,69.0822834 C61.7074194,67.6331406 58.0479909,64.2388549 58.0479909,62.1679977 C58.0479909,59.7405691 58.7199909,58.5474263 62.2537051,55.6925691 C65.878848,52.7668549 68.4434194,48.6548549 68.4434194,43.8731406 C68.4434194,38.1771406 65.9885623,32.6274263 61.3805623,30.7942834 L68.326848,30.7942834 L73.2319909,27.1325691 L51.318848,27.1325691 C41.494848,27.1325691 32.246848,34.8194263 32.246848,43.7268549 C32.246848,52.8285691 38.9462766,60.1748549 48.9417051,60.1748549 C49.6365623,60.1748549 50.310848,60.1588549 50.9714194,60.1108549 C50.3245623,61.3954263 49.8605623,62.837712 49.8605623,64.3394263 C49.8605623,66.8674263 51.1771337,68.9199977 52.8434194,70.5931406 C51.5839909,70.5931406 50.3702766,70.6319977 49.046848,70.6319977 C36.8777051,70.6319977 27.510848,78.6365691 27.510848,86.9405691 C27.510848,95.1142834 37.2594194,100.229712 49.4262766,100.229712 C63.3005623,100.229712 70.9645623,92.0971406 70.9645623,83.9211406 C70.9622766,77.3634263 69.4765623,73.3131406 63.686848,69.0822834 L63.686848,69.0822834 L63.686848,69.0822834 Z M52.1119909,57.8685691 C46.4662766,57.6948549 41.0994194,51.3451406 40.1257051,43.685712 C39.1497051,36.0262834 42.9371337,30.165712 48.5805623,30.3394263 C54.2262766,30.5131406 59.5931337,36.6594263 60.5691337,44.3165691 C61.5405623,51.9759977 57.7531337,58.0422834 52.1119909,57.8685691 L52.1119909,57.8685691 L52.1119909,57.8685691 Z M49.3805623,96.613712 C40.966848,96.613712 35.414848,91.1142834 35.414848,84.5085691 C35.414848,78.0331406 42.950848,72.6434263 51.3599909,72.7371406 C53.3234194,72.757712 55.1519909,73.0845691 56.8137051,73.6399977 C61.3805623,76.9222834 64.1371337,78.773712 65.0582766,82.5131406 C65.2342766,83.269712 65.3279909,84.0514263 65.3279909,84.8468549 C65.3279909,91.4502834 61.2045623,96.613712 49.3805623,96.613712 L49.3805623,96.613712 L49.3805623,96.613712 Z M91.4925623,27.1119977 L86.9371337,27.1119977 L86.9371337,40.8194263 L73.2159909,40.8194263 L73.2159909,45.3748549 L86.9371337,45.3748549 L86.9371337,59.1211406 L91.4925623,59.1211406 L91.4925623,45.3748549 L105.227419,45.3748549 L105.227419,40.8194263 L91.4925623,40.8194263 L91.4925623,27.1119977 L91.4925623,27.1119977 Z M64.0845623,-0.318859429 C28.7382766,-0.318859429 0.0845622857,28.3348549 0.0845622857,63.6811406 C0.0845622857,99.0274263 28.7382766,127.681141 64.0845623,127.681141 C99.430848,127.681141 128.084562,99.0274263 128.084562,63.6811406 C128.084562,28.3348549 99.430848,-0.318859429 64.0845623,-0.318859429 L64.0845623,-0.318859429 L64.0845623,-0.318859429 Z M64.0845623,123.109712 C31.2639909,123.109712 4.65599086,96.501712 4.65599086,63.6811406 C4.65599086,30.8605691 31.2639909,4.25256914 64.0845623,4.25256914 C96.9051337,4.25256914 123.513134,30.8605691 123.513134,63.6811406 C123.513134,96.501712 96.9051337,123.109712 64.0845623,123.109712 L64.0845623,123.109712 L64.0845623,123.109712 Z" id="Shape" sketch:type="MSShapeGroup"></path>
        </g>
    </g>
</svg>