<?xml version="1.0" encoding="UTF-8"?>
<svg width="129px" height="129px" viewBox="0 0 129 129" version="1.1" xmlns="http://www.w3.org/2000/svg" xmlns:xlink="http://www.w3.org/1999/xlink">
    <!-- Generator: Sketch 58 (84663) - https://sketch.com -->
    <title>mastodon</title>
    <desc>Created with Sketch.</desc>
    <g id="mastodon" stroke="none" stroke-width="1" fill="none" fill-rule="evenodd">
        <path d="M99.7014001,45.1821 C98.5616001,36.84324 91.1774001,30.27166 82.4240001,28.99826 C80.9472001,28.78309 75.3517001,28 62.3901001,28 L62.2933001,28 C49.3281001,28 46.5465001,28.78309 45.0697001,28.99826 C36.5600001,30.23638 28.7887701,36.14128 26.9033061,44.5789 C25.9964216,48.7342 25.8996391,53.341 26.0681121,57.5668 C26.3082751,63.6269 26.3548741,69.6764 26.9140601,75.7119 C27.3006401,79.7209 27.9750201,83.698 28.9321501,87.6134 C30.7244101,94.8446 37.9795001,100.8624 45.0876001,103.3174 C52.6979001,105.8777 60.8821001,106.3028 68.7240001,104.545 C69.5866001,104.3474 70.4398001,104.1182 71.2833001,103.8571 C73.1867001,103.261 75.4199001,102.5943 77.0616001,101.4232 C77.0841001,101.4068 77.1026001,101.3856 77.1156001,101.3611 C77.1286001,101.3367 77.1359001,101.3097 77.1368001,101.2821 L77.1368001,95.4337 C77.1364001,95.4079 77.1302001,95.3825 77.1185001,95.3594 C77.1069001,95.3363 77.0902001,95.3161 77.0695001,95.3002 C77.0489001,95.2843 77.0249001,95.2732 76.9994001,95.2676 C76.9738001,95.262 76.9473001,95.2621 76.9218001,95.2679 C71.8976001,96.4489 66.7491001,97.0409 61.5836001,97.0316 C52.6940001,97.0316 50.3031001,92.8798 49.6184001,91.1514 C49.0681001,89.6576 48.7186001,88.0993 48.5789001,86.5163 C48.5775001,86.4898 48.5825001,86.4632 48.5934001,86.4389 C48.6043001,86.4145 48.6210001,86.3931 48.6419001,86.3762 C48.6629001,86.3594 48.6876001,86.3477 48.7140001,86.342 C48.7404001,86.3363 48.7678001,86.3368 48.7940001,86.3435 C53.7345001,87.5165 58.7990001,88.1085 63.8813001,88.1072 C65.1036001,88.1072 66.3223001,88.1072 67.5447001,88.0755 C72.6562001,87.9344 78.0437001,87.6769 83.0728001,86.7103 C83.1983001,86.6857 83.3237001,86.6645 83.4313001,86.6327 C91.3638001,85.1336 98.9128001,80.428 99.6799001,68.5124 C99.7086001,68.0433 99.7803001,63.5987 99.7803001,63.1119 C99.7839001,61.4576 100.3216,51.3762 99.7014001,45.1821 Z M87.4925001,74.9147 L79.1514001,74.9147 L79.1514001,54.8084 C79.1514001,50.5755 77.3591001,48.4167 73.7136001,48.4167 C69.7061001,48.4167 67.6988001,50.9705 67.6988001,56.0148 L67.6988001,67.0203 L59.4078001,67.0203 L59.4078001,56.0148 C59.4078001,50.9705 57.3969001,48.4167 53.3894001,48.4167 C49.7654001,48.4167 47.9552001,50.5755 47.9516001,54.8084 L47.9516001,74.9147 L39.6176001,74.9147 L39.6176001,54.1981 C39.6176001,49.9652 40.7157001,46.6024 42.9118001,44.1097 C45.1772001,41.6229 48.1488001,40.346 51.8373001,40.346 C56.1064001,40.346 59.3325001,41.9615 61.4832001,45.1891 L63.5587001,48.6178 L65.6377001,45.1891 C67.7884001,41.9615 71.0145001,40.346 75.2765001,40.346 C78.9614001,40.346 81.9329001,41.6229 84.2055001,44.1097 C86.4017001,46.6001 87.4997001,49.9629 87.4997001,54.1981 L87.4925001,74.9147 Z M64.0845623,0.681140571 C28.7382766,0.681140571 0.0845622857,29.3348549 0.0845622857,64.6811406 C0.0845622857,100.027426 28.7382766,128.681141 64.0845623,128.681141 C99.430848,128.681141 128.084562,100.027426 128.084562,64.6811406 C128.084562,29.3348549 99.430848,0.681140571 64.0845623,0.681140571 L64.0845623,0.681140571 L64.0845623,0.681140571 Z M64.0845623,124.109712 C31.2639909,124.109712 4.65599086,97.501712 4.65599086,64.6811406 C4.65599086,31.8605691 31.2639909,5.25256914 64.0845623,5.25256914 C96.9051337,5.25256914 123.513134,31.8605691 123.513134,64.6811406 C123.513134,97.501712 96.9051337,124.109712 64.0845623,124.109712 L64.0845623,124.109712 L64.0845623,124.109712 Z" id="Shape" fill="#000000" fill-rule="nonzero"></path>
    </g>
</svg>