<?xml version="1.0" encoding="UTF-8" standalone="no"?>
<svg width="167px" height="50px" viewBox="0 0 167 50" version="1.1" xmlns="http://www.w3.org/2000/svg" xmlns:xlink="http://www.w3.org/1999/xlink" xmlns:sketch="http://www.bohemiancoding.com/sketch/ns">
    <!-- Generator: Sketch 3.3 (11970) - http://www.bohemiancoding.com/sketch -->
    <title>app-store</title>
    <desc>Created with Sketch.</desc>
    <defs></defs>
    <g id="Page-1" stroke="none" stroke-width="1" fill="none" fill-rule="evenodd" sketch:type="MSPage">
        <g id="app-store" sketch:type="MSArtboardGroup">
            <g sketch:type="MSLayerGroup" id="Group">
                <g sketch:type="MSShapeGroup">
                    <rect id="Rectangle-2" stroke="#A6A6A6" fill="#000000" x="0" y="0" width="167" height="50" rx="5"></rect>
                    <g transform="translate(14.901961, 7.500000)" id="Shape" fill="#FFFFFF">
                        <path d="M22.5118954,17.23 C22.4758824,13.20125 25.789085,11.24125 25.9405882,11.15 C24.064183,8.39625 21.155817,8.02 20.1337908,7.99 C17.6911111,7.73125 15.3216993,9.46125 14.0773856,9.46125 C12.8082353,9.46125 10.8920915,8.015 8.8269281,8.0575 C6.16941176,8.09875 3.68326797,9.6475 2.31973856,12.0525 C-0.494248366,16.95625 1.60444444,24.1625 4.30045752,28.12625 C5.64908497,30.0675 7.22496732,32.235 9.28764706,32.15875 C11.3056209,32.075 12.0594118,30.86375 14.4946405,30.86375 C16.9075163,30.86375 17.6153595,32.15875 19.7190196,32.11 C21.8847712,32.075 23.2483007,30.16 24.5497386,28.20125 C26.1082353,25.97625 26.7341176,23.785 26.7589542,23.6725 C26.7080392,23.655 22.5528758,22.05875 22.5118954,17.23 L22.5118954,17.23 Z"></path>
                        <path d="M18.5380392,5.3825 C19.6233987,4.01625 20.3660131,2.1575 20.1598693,0.27125 C18.5889542,0.34125 16.6243791,1.365 15.4930719,2.70125 C14.4921569,3.87875 13.5980392,5.80875 13.8290196,7.62375 C15.5936601,7.75625 17.4054902,6.7275 18.5380392,5.3825 L18.5380392,5.3825 Z"></path>
                    </g>
                    <g transform="translate(52.000000, 22.000000)" id="Shape" fill="#FFFFFF">
                        <path d="M14.3765432,16.5048889 L11.5728395,16.5048889 L10.037037,11.7272222 L4.69876543,11.7272222 L3.23580247,16.5048889 L0.50617284,16.5048889 L5.79506173,0.239555556 L9.0617284,0.239555556 L14.3765432,16.5048889 L14.3765432,16.5048889 Z M9.57407407,9.72277778 L8.18518519,5.47555556 C8.0382716,5.04166667 7.76296296,4.01988889 7.35679012,2.41144444 L7.30740741,2.41144444 C7.14567901,3.10322222 6.88518519,4.125 6.52716049,5.47555556 L5.16296296,9.72277778 L9.57407407,9.72277778 L9.57407407,9.72277778 Z"></path>
                        <path d="M27.9777778,10.4964444 C27.9777778,12.4911111 27.4333333,14.0677778 26.3444444,15.2252222 C25.3691358,16.2555556 24.1580247,16.7701111 22.7123457,16.7701111 C21.1518519,16.7701111 20.0308642,16.2152222 19.3481481,15.1054444 L19.2987654,15.1054444 L19.2987654,21.2837778 L16.6666667,21.2837778 L16.6666667,8.63744444 C16.6666667,7.38344444 16.6333333,6.09644444 16.5691358,4.77644444 L18.8839506,4.77644444 L19.0308642,6.63544444 L19.0802469,6.63544444 C19.9580247,5.23477778 21.2901235,4.53566667 23.0777778,4.53566667 C24.4753086,4.53566667 25.6419753,5.082 26.5753086,6.17588889 C27.5111111,7.271 27.9777778,8.71077778 27.9777778,10.4964444 L27.9777778,10.4964444 Z M25.2962963,10.5917778 C25.2962963,9.45022222 25.037037,8.50911111 24.5160494,7.76844444 C23.9469136,6.996 23.182716,6.60977778 22.2246914,6.60977778 C21.5753086,6.60977778 20.9851852,6.82488889 20.4580247,7.249 C19.9296296,7.67677778 19.5839506,8.23533333 19.4222222,8.92711111 C19.3407407,9.24977778 19.3,9.51377778 19.3,9.72155556 L19.3,11.6771111 C19.3,12.5302222 19.5641975,13.2501111 20.0925926,13.838 C20.6209877,14.4258889 21.3074074,14.7192222 22.1518519,14.7192222 C23.1432099,14.7192222 23.9148148,14.3403333 24.4666667,13.585 C25.0197531,12.8284444 25.2962963,11.8311111 25.2962963,10.5917778 L25.2962963,10.5917778 Z"></path>
                        <path d="M41.6037037,10.4964444 C41.6037037,12.4911111 41.0592593,14.0677778 39.9691358,15.2252222 C38.9950617,16.2555556 37.7839506,16.7701111 36.3382716,16.7701111 C34.7777778,16.7701111 33.6567901,16.2152222 32.9753086,15.1054444 L32.9259259,15.1054444 L32.9259259,21.2837778 L30.2938272,21.2837778 L30.2938272,8.63744444 C30.2938272,7.38344444 30.2604938,6.09644444 30.1962963,4.77644444 L32.5111111,4.77644444 L32.6580247,6.63544444 L32.7074074,6.63544444 C33.5839506,5.23477778 34.9160494,4.53566667 36.7049383,4.53566667 C38.1012346,4.53566667 39.2679012,5.082 40.2037037,6.17588889 C41.1358025,7.271 41.6037037,8.71077778 41.6037037,10.4964444 L41.6037037,10.4964444 Z M38.9222222,10.5917778 C38.9222222,9.45022222 38.6617284,8.50911111 38.1407407,7.76844444 C37.5716049,6.996 36.8098765,6.60977778 35.8506173,6.60977778 C35.2,6.60977778 34.6111111,6.82488889 34.082716,7.249 C33.554321,7.67677778 33.2098765,8.23533333 33.0481481,8.92711111 C32.9679012,9.24977778 32.9259259,9.51377778 32.9259259,9.72155556 L32.9259259,11.6771111 C32.9259259,12.5302222 33.1901235,13.2501111 33.7160494,13.838 C34.2444444,14.4246667 34.9308642,14.7192222 35.7777778,14.7192222 C36.7691358,14.7192222 37.5407407,14.3403333 38.0925926,13.585 C38.645679,12.8284444 38.9222222,11.8311111 38.9222222,10.5917778 L38.9222222,10.5917778 Z"></path>
                        <path d="M56.8382716,11.9435556 C56.8382716,13.3271111 56.3530864,14.4527778 55.3790123,15.3217778 C54.308642,16.2714444 52.8185185,16.7456667 50.9037037,16.7456667 C49.1358025,16.7456667 47.7185185,16.4083333 46.645679,15.7324444 L47.2555556,13.5605556 C48.4111111,14.2523333 49.6790123,14.5994444 51.0604938,14.5994444 C52.0518519,14.5994444 52.8234568,14.377 53.3777778,13.9345556 C53.9296296,13.4921111 54.2049383,12.8981111 54.2049383,12.1574444 C54.2049383,11.4974444 53.9777778,10.9413333 53.5222222,10.4903333 C53.0691358,10.0393333 52.3123457,9.62011111 51.2555556,9.23266667 C48.3790123,8.17055556 46.9419753,6.61466667 46.9419753,4.56866667 C46.9419753,3.23155556 47.445679,2.13522222 48.454321,1.28211111 C49.4592593,0.427777778 50.8,0.00122222222 52.4765432,0.00122222222 C53.9716049,0.00122222222 55.2135802,0.259111111 56.2049383,0.773666667 L55.5469136,2.89788889 C54.6209877,2.39922222 53.5740741,2.14988889 52.4024691,2.14988889 C51.4765432,2.14988889 50.7530864,2.376 50.2345679,2.82577778 C49.7962963,3.22788889 49.5765432,3.718 49.5765432,4.29855556 C49.5765432,4.94144444 49.8271605,5.47311111 50.3308642,5.89111111 C50.7691358,6.27733333 51.5654321,6.69533333 52.7209877,7.14633333 C54.1345679,7.70977778 55.1728395,8.36855556 55.8407407,9.12388889 C56.5061728,9.87677778 56.8382716,10.8191111 56.8382716,11.9435556 L56.8382716,11.9435556 Z"></path>
                        <path d="M65.5407407,6.732 L62.6395062,6.732 L62.6395062,12.4263333 C62.6395062,13.8746667 63.1506173,14.5982222 64.1753086,14.5982222 C64.645679,14.5982222 65.0358025,14.5578889 65.3444444,14.4772222 L65.417284,16.456 C64.8987654,16.6478889 64.2160494,16.7444444 63.3703704,16.7444444 C62.3308642,16.7444444 61.5185185,16.4303333 60.9320988,15.8033333 C60.3481481,15.1751111 60.054321,14.1215556 60.054321,12.6414444 L60.054321,6.72955556 L58.3259259,6.72955556 L58.3259259,4.774 L60.054321,4.774 L60.054321,2.62655556 L62.6395062,1.85411111 L62.6395062,4.774 L65.5407407,4.774 L65.5407407,6.732 L65.5407407,6.732 Z"></path>
                        <path d="M78.6308642,10.5441111 C78.6308642,12.3468889 78.1098765,13.827 77.0703704,14.9844444 C75.9802469,16.1761111 74.5333333,16.7701111 72.7296296,16.7701111 C70.991358,16.7701111 69.6074074,16.1993333 68.5753086,15.0577778 C67.5432099,13.9162222 67.0271605,12.4752222 67.0271605,10.7384444 C67.0271605,8.921 67.5580247,7.43233333 68.6234568,6.27488889 C69.6864198,5.11622222 71.1209877,4.53688889 72.9246914,4.53688889 C74.662963,4.53688889 76.0617284,5.10766667 77.117284,6.25044444 C78.1271605,7.359 78.6308642,8.79022222 78.6308642,10.5441111 L78.6308642,10.5441111 Z M75.9,10.6284444 C75.9,9.54677778 75.6666667,8.61911111 75.1938272,7.84544444 C74.6419753,6.90922222 73.8530864,6.44233333 72.8308642,6.44233333 C71.7728395,6.44233333 70.9691358,6.91044444 70.417284,7.84544444 C69.9444444,8.62033333 69.7111111,9.56266667 69.7111111,10.6773333 C69.7111111,11.759 69.9444444,12.6866667 70.417284,13.4591111 C70.9864198,14.3953333 71.7814815,14.8622222 72.8074074,14.8622222 C73.8123457,14.8622222 74.6012346,14.3855556 75.1703704,13.4346667 C75.6555556,12.6463333 75.9,11.7088889 75.9,10.6284444 L75.9,10.6284444 Z"></path>
                        <path d="M87.1864198,7.06811111 C86.9259259,7.02044444 86.6481481,6.996 86.3567901,6.996 C85.4308642,6.996 84.7148148,7.34188889 84.2111111,8.03488889 C83.7728395,8.646 83.5530864,9.41844444 83.5530864,10.351 L83.5530864,16.5048889 L80.9222222,16.5048889 L80.9469136,8.47 C80.9469136,7.11822222 80.9135802,5.88744444 80.8481481,4.77766667 L83.1407407,4.77766667 L83.237037,7.02166667 L83.3098765,7.02166667 C83.5876543,6.25044444 84.0259259,5.62955556 84.6259259,5.16388889 C85.2123457,4.74466667 85.845679,4.53566667 86.5283951,4.53566667 C86.7716049,4.53566667 86.991358,4.55277778 87.1864198,4.58333333 L87.1864198,7.06811111 L87.1864198,7.06811111 Z"></path>
                        <path d="M98.9580247,10.0857778 C98.9580247,10.5526667 98.9271605,10.9462222 98.8617284,11.2676667 L90.9654321,11.2676667 C90.9962963,12.4263333 91.3777778,13.3124444 92.1111111,13.9235556 C92.7765432,14.4698889 93.637037,14.7436667 94.6938272,14.7436667 C95.862963,14.7436667 96.9296296,14.5591111 97.8888889,14.1887778 L98.3012346,15.9976667 C97.1802469,16.4816667 95.8567901,16.7224444 94.3296296,16.7224444 C92.4925926,16.7224444 91.0506173,16.1871111 90.0012346,15.1176667 C88.954321,14.0482222 88.4296296,12.6121111 88.4296296,10.8105556 C88.4296296,9.042 88.917284,7.56922222 89.8938272,6.39466667 C90.9160494,5.14066667 92.2975309,4.51366667 94.0358025,4.51366667 C95.7432099,4.51366667 97.0358025,5.14066667 97.9135802,6.39466667 C98.608642,7.39077778 98.9580247,8.62277778 98.9580247,10.0857778 L98.9580247,10.0857778 Z M96.4481481,9.40988889 C96.4654321,8.63744444 96.2938272,7.97011111 95.937037,7.40666667 C95.4814815,6.68188889 94.7814815,6.32011111 93.8395062,6.32011111 C92.9790123,6.32011111 92.2790123,6.67333333 91.7444444,7.38222222 C91.3061728,7.94566667 91.045679,8.62155556 90.9654321,9.40866667 L96.4481481,9.40866667 L96.4481481,9.40988889 Z"></path>
                    </g>
                    <g transform="translate(53.000000, 8.000000)" id="Shape" fill="#FFFFFF">
                        <path d="M7.50506329,5.01125 C7.50506329,6.4825 7.06716456,7.59 6.19260759,8.33375 C5.38255696,9.02 4.23136709,9.36375 2.74027848,9.36375 C2.00093671,9.36375 1.36827848,9.33125 0.838582278,9.26625 L0.838582278,1.2275 C1.5295443,1.115 2.2738481,1.0575 3.0776962,1.0575 C4.49807595,1.0575 5.56863291,1.36875 6.29060759,1.99125 C7.09941772,2.695 7.50506329,3.70125 7.50506329,5.01125 L7.50506329,5.01125 Z M6.1343038,5.0475 C6.1343038,4.09375 5.88372152,3.3625 5.38255696,2.8525 C4.88139241,2.34375 4.14949367,2.08875 3.18562025,2.08875 C2.77625316,2.08875 2.42767089,2.11625 2.13863291,2.17375 L2.13863291,8.285 C2.29865823,8.31 2.59141772,8.32125 3.01691139,8.32125 C4.01179747,8.32125 4.77967089,8.0425 5.32053165,7.485 C5.86139241,6.9275 6.1343038,6.115 6.1343038,5.0475 L6.1343038,5.0475 Z"></path>
                        <path d="M14.7731899,6.29625 C14.7731899,7.2025 14.5164051,7.945 14.0028354,8.5275 C13.4644557,9.12625 12.7511646,9.425 11.860481,9.425 C11.0020506,9.425 10.3185316,9.13875 9.80868354,8.56375 C9.30007595,7.99 9.04577215,7.26625 9.04577215,6.39375 C9.04577215,5.48125 9.30751899,4.7325 9.83349367,4.15125 C10.3594684,3.57 11.066557,3.27875 11.9572405,3.27875 C12.8156709,3.27875 13.5053924,3.565 14.0276456,4.13875 C14.5238481,4.69625 14.7731899,5.41625 14.7731899,6.29625 L14.7731899,6.29625 Z M13.4247595,6.33875 C13.4247595,5.795 13.3081519,5.32875 13.0761772,4.94 C12.8032658,4.47 12.4149873,4.235 11.9101013,4.235 C11.3878481,4.235 10.9908861,4.47 10.7179747,4.94 C10.4847595,5.32875 10.3693924,5.8025 10.3693924,6.3625 C10.3693924,6.90625 10.486,7.3725 10.7179747,7.76125 C10.9995696,8.23125 11.3915696,8.46625 11.8976962,8.46625 C12.3938987,8.46625 12.7834177,8.2275 13.0637722,7.74875 C13.3044304,7.3525 13.4247595,6.8825 13.4247595,6.33875 L13.4247595,6.33875 Z"></path>
                        <path d="M24.5186076,3.39875 L22.6888608,9.29125 L21.4979747,9.29125 L20.7400253,6.7325 C20.5477468,6.09375 20.391443,5.45875 20.2698734,4.82875 L20.2463038,4.82875 C20.1334177,5.47625 19.9771139,6.11 19.7761519,6.7325 L18.9710633,9.29125 L17.7665316,9.29125 L16.0459494,3.39875 L17.3819747,3.39875 L18.0431646,6.2 C18.2031899,6.8625 18.3346835,7.49375 18.4401266,8.09125 L18.4636962,8.09125 C18.5604557,7.59875 18.720481,6.97125 18.9462532,6.2125 L19.7761519,3.4 L20.8355443,3.4 L21.6307089,6.1525 C21.8229873,6.82375 21.9792911,7.47 22.0996203,8.0925 L22.1355949,8.0925 C22.2236709,7.48625 22.3564051,6.84 22.532557,6.1525 L23.2421266,3.4 L24.5186076,3.4 L24.5186076,3.39875 Z"></path>
                        <path d="M31.2582785,9.29125 L29.9582278,9.29125 L29.9582278,5.91625 C29.9582278,4.87625 29.5662278,4.35625 28.7797468,4.35625 C28.3939494,4.35625 28.0825823,4.49875 27.8406835,4.785 C27.6012658,5.07125 27.4796962,5.40875 27.4796962,5.795 L27.4796962,9.29 L26.1796456,9.29 L26.1796456,5.0825 C26.1796456,4.565 26.163519,4.00375 26.1325063,3.39625 L27.2750127,3.39625 L27.3357975,4.3175 L27.3717722,4.3175 C27.5231139,4.03125 27.7488861,3.795 28.0453671,3.60625 C28.3976709,3.38625 28.7921519,3.275 29.2238481,3.275 C29.7696709,3.275 30.2236962,3.4525 30.5846835,3.80875 C31.0337468,4.245 31.2582785,4.89625 31.2582785,5.76125 L31.2582785,9.29125 L31.2582785,9.29125 Z"></path>
                        <path d="M34.8433418,9.29125 L33.5445316,9.29125 L33.5445316,0.695 L34.8433418,0.695 L34.8433418,9.29125 L34.8433418,9.29125 Z"></path>
                        <path d="M42.4972658,6.29625 C42.4972658,7.2025 42.240481,7.945 41.7269114,8.5275 C41.1885316,9.12625 40.474,9.425 39.584557,9.425 C38.7248861,9.425 38.0413671,9.13875 37.5327595,8.56375 C37.0241519,7.99 36.7698481,7.26625 36.7698481,6.39375 C36.7698481,5.48125 37.0315949,4.7325 37.5575696,4.15125 C38.0835443,3.57 38.7906329,3.27875 39.6800759,3.27875 C40.5397468,3.27875 41.2282278,3.565 41.7517215,4.13875 C42.2479241,4.69625 42.4972658,5.41625 42.4972658,6.29625 L42.4972658,6.29625 Z M41.1475949,6.33875 C41.1475949,5.795 41.0309873,5.32875 40.7990127,4.94 C40.5273418,4.47 40.1378228,4.235 39.6341772,4.235 C39.1106835,4.235 38.7137215,4.47 38.4420506,4.94 C38.2088354,5.32875 38.0934684,5.8025 38.0934684,6.3625 C38.0934684,6.90625 38.2100759,7.3725 38.4420506,7.76125 C38.7236456,8.23125 39.1156456,8.46625 39.6217722,8.46625 C40.1179747,8.46625 40.5062532,8.2275 40.7866076,7.74875 C41.0285063,7.3525 41.1475949,6.8825 41.1475949,6.33875 L41.1475949,6.33875 Z"></path>
                        <path d="M48.7891139,9.29125 L47.6217975,9.29125 L47.525038,8.6125 L47.4890633,8.6125 C47.0896203,9.15375 46.5202278,9.425 45.7808861,9.425 C45.2288608,9.425 44.7822785,9.24625 44.4461013,8.89125 C44.1409367,8.56875 43.9883544,8.1675 43.9883544,7.69125 C43.9883544,6.97125 44.2860759,6.4225 44.8852405,6.0425 C45.4831646,5.6625 46.3242278,5.47625 47.4071899,5.485 L47.4071899,5.375 C47.4071899,4.59875 47.0027848,4.21125 46.1927342,4.21125 C45.6158987,4.21125 45.1072911,4.3575 44.6681519,4.6475 L44.4039241,3.7875 C44.9472658,3.44875 45.6183797,3.27875 46.4098228,3.27875 C47.9381266,3.27875 48.7047595,4.09125 48.7047595,5.71625 L48.7047595,7.88625 C48.7047595,8.475 48.7332911,8.94375 48.7891139,9.29125 L48.7891139,9.29125 Z M47.439443,7.26625 L47.439443,6.3575 C46.0054177,6.3325 45.2884051,6.72875 45.2884051,7.545 C45.2884051,7.8525 45.3702785,8.0825 45.5377468,8.23625 C45.7052152,8.39 45.9185823,8.46625 46.1728861,8.46625 C46.4582025,8.46625 46.7249114,8.375 46.9680506,8.19375 C47.2124304,8.01125 47.3625316,7.78 47.4183544,7.49625 C47.432,7.4325 47.439443,7.355 47.439443,7.26625 L47.439443,7.26625 Z"></path>
                        <path d="M56.1763291,9.29125 L55.0226582,9.29125 L54.9618734,8.345 L54.9258987,8.345 C54.5574684,9.065 53.9297722,9.425 53.0477722,9.425 C52.3431646,9.425 51.7564051,9.14625 51.2912152,8.58875 C50.8260253,8.03125 50.5940506,7.3075 50.5940506,6.41875 C50.5940506,5.465 50.8458734,4.6925 51.352,4.1025 C51.842,3.5525 52.4424051,3.2775 53.1569367,3.2775 C53.9421772,3.2775 54.4917215,3.54375 54.8043291,4.0775 L54.8291392,4.0775 L54.8291392,0.695 L56.1304304,0.695 L56.1304304,7.70375 C56.1304304,8.2775 56.1453165,8.80625 56.1763291,9.29125 L56.1763291,9.29125 Z M54.8291392,6.80625 L54.8291392,5.82375 C54.8291392,5.65375 54.8167342,5.51625 54.7931646,5.41125 C54.7199747,5.09625 54.5624304,4.83125 54.3230127,4.6175 C54.0811139,4.40375 53.7895949,4.29625 53.4534177,4.29625 C52.9683797,4.29625 52.5887848,4.49 52.3096709,4.87875 C52.033038,5.2675 51.8928608,5.76375 51.8928608,6.37 C51.8928608,6.9525 52.0255949,7.425 52.2923038,7.78875 C52.5738987,8.17625 52.9534937,8.37 53.4286076,8.37 C53.8553418,8.37 54.196481,8.20875 54.4557468,7.885 C54.7063291,7.58625 54.8291392,7.22625 54.8291392,6.80625 L54.8291392,6.80625 Z"></path>
                        <path d="M67.2949873,6.29625 C67.2949873,7.2025 67.0382025,7.945 66.5246329,8.5275 C65.9862532,9.12625 65.2742025,9.425 64.3822785,9.425 C63.5250886,9.425 62.8415696,9.13875 62.330481,8.56375 C61.8218734,7.99 61.5675696,7.26625 61.5675696,6.39375 C61.5675696,5.48125 61.8293165,4.7325 62.3552911,4.15125 C62.8812658,3.57 63.5883544,3.27875 64.4802785,3.27875 C65.3374684,3.27875 66.0284304,3.565 66.549443,4.13875 C67.0456456,4.69625 67.2949873,5.41625 67.2949873,6.29625 L67.2949873,6.29625 Z M65.9477975,6.33875 C65.9477975,5.795 65.8311899,5.32875 65.5992152,4.94 C65.3250633,4.47 64.9380253,4.235 64.4318987,4.235 C63.9108861,4.235 63.5139241,4.47 63.2397722,4.94 C63.006557,5.32875 62.8911899,5.8025 62.8911899,6.3625 C62.8911899,6.90625 63.0077975,7.3725 63.2397722,7.76125 C63.5213671,8.23125 63.9133671,8.46625 64.4194937,8.46625 C64.9156962,8.46625 65.3064557,8.2275 65.5868101,7.74875 C65.8262278,7.3525 65.9477975,6.8825 65.9477975,6.33875 L65.9477975,6.33875 Z"></path>
                        <path d="M74.2852405,9.29125 L72.9864304,9.29125 L72.9864304,5.91625 C72.9864304,4.87625 72.5944304,4.35625 71.8067089,4.35625 C71.4209114,4.35625 71.1095443,4.49875 70.8688861,4.785 C70.6282278,5.07125 70.5078987,5.40875 70.5078987,5.795 L70.5078987,9.29 L69.2066076,9.29 L69.2066076,5.0825 C69.2066076,4.565 69.1917215,4.00375 69.1607089,3.39625 L70.3019747,3.39625 L70.3627595,4.3175 L70.3987342,4.3175 C70.5513165,4.03125 70.7770886,3.795 71.0723291,3.60625 C71.4258734,3.38625 71.8191139,3.275 72.2520506,3.275 C72.7966329,3.275 73.2506582,3.4525 73.6116456,3.80875 C74.0619494,4.245 74.2852405,4.89625 74.2852405,5.76125 L74.2852405,9.29125 L74.2852405,9.29125 Z"></path>
                        <path d="M83.0345316,4.38 L81.6029873,4.38 L81.6029873,7.2425 C81.6029873,7.97 81.8572911,8.33375 82.3609367,8.33375 C82.5941519,8.33375 82.7876709,8.31375 82.9402532,8.2725 L82.9737468,9.26625 C82.716962,9.36375 82.3795443,9.4125 81.9639747,9.4125 C81.4504051,9.4125 81.050962,9.255 80.7619241,8.94 C80.4716456,8.625 80.3277468,8.095 80.3277468,7.35125 L80.3277468,4.38 L79.473038,4.38 L79.473038,3.39875 L80.3277468,3.39875 L80.3277468,2.31875 L81.6017468,1.93125 L81.6017468,3.3975 L83.0332911,3.3975 L83.0332911,4.38 L83.0345316,4.38 Z"></path>
                        <path d="M89.9168608,9.29125 L88.6155696,9.29125 L88.6155696,5.94125 C88.6155696,4.885 88.2235696,4.35625 87.4383291,4.35625 C86.835443,4.35625 86.4235949,4.6625 86.1978228,5.275 C86.1593671,5.40375 86.137038,5.56125 86.137038,5.74625 L86.137038,9.29 L84.8382278,9.29 L84.8382278,0.695 L86.137038,0.695 L86.137038,4.24625 L86.1618481,4.24625 C86.5712152,3.6 87.1579747,3.2775 87.9184051,3.2775 C88.4567848,3.2775 88.9021266,3.455 89.2556709,3.81125 C89.6960506,4.255 89.9168608,4.915 89.9168608,5.7875 L89.9168608,9.29125 L89.9168608,9.29125 Z"></path>
                        <path d="M97.0162785,6.06625 C97.0162785,6.30125 96.9989114,6.49875 96.9678987,6.66 L93.0689873,6.66 C93.0863544,7.2425 93.2724304,7.68625 93.6334177,7.99375 C93.9633924,8.26875 94.3888861,8.40625 94.9098987,8.40625 C95.4867342,8.40625 96.0127089,8.31375 96.4865823,8.1275 L96.6900253,9.0375 C96.135519,9.28 95.4830127,9.40125 94.7275443,9.40125 C93.8219747,9.40125 93.1086835,9.1325 92.5926329,8.595 C92.0741013,8.0575 91.8173165,7.33625 91.8173165,6.43125 C91.8173165,5.5425 92.0567342,4.8025 92.5392911,4.2125 C93.0429367,3.5825 93.7239747,3.2675 94.5836456,3.2675 C95.4247089,3.2675 96.0635696,3.5825 96.4952658,4.2125 C96.8438481,4.7125 97.0162785,5.33125 97.0162785,6.06625 L97.0162785,6.06625 Z M95.7757722,5.7275 C95.7856962,5.33875 95.7001013,5.00375 95.5239494,4.72125 C95.2981772,4.3575 94.954557,4.175 94.4893671,4.175 C94.0651139,4.175 93.7190127,4.3525 93.4547848,4.70875 C93.2389367,4.9925 93.1111646,5.33125 93.0689873,5.7275 L95.7757722,5.7275 L95.7757722,5.7275 Z"></path>
                    </g>
                </g>
            </g>
        </g>
    </g>
</svg>