<?xml version="1.0" encoding="UTF-8" standalone="no"?>
<svg width="128px" height="128px" viewBox="0 0 128 128" version="1.1" xmlns="http://www.w3.org/2000/svg" xmlns:xlink="http://www.w3.org/1999/xlink" xmlns:sketch="http://www.bohemiancoding.com/sketch/ns">
    <!-- Generator: Sketch 3.1.1 (8761) - http://www.bohemiancoding.com/sketch -->
    <title>facebook</title>
    <desc>Created with Sketch.</desc>
    <defs></defs>
    <g id="Page-1" stroke="none" stroke-width="1" fill="none" fill-rule="evenodd" sketch:type="MSPage">
        <g id="facebook" sketch:type="MSArtboardGroup" fill="#000000">
            <g id="1260-facebook@2x" sketch:type="MSLayerGroup">
                <g id="Page-1" sketch:type="MSShapeGroup">
                    <g id="Glyphish-8-Icons">
                        <g id="1260-facebook@2x" transform="translate(0.084562, -0.318859)">
                            <g id="_x31_260-facebook_x40_2x.png">
                                <path d="M54.9485714,46.8754286 L54.9485714,56.4731429 L43.4331429,56.4731429 L43.4331429,69.44 L54.944,69.44 L54.944,102.857143 L68.6925714,102.857143 L68.6925714,69.44 L80.0891429,69.44 L81.8011429,56.4731429 L68.6925714,56.4731429 L68.6925714,48.1622857 C68.6925714,44.3977143 69.7211429,41.8285714 75.2342857,41.8285714 L82.2651429,41.8308571 L82.2651429,30.1897143 C81.0491429,30.032 76.8754286,29.7097143 72.0205714,29.7097143 C61.8811429,29.7097143 54.9485714,35.7417143 54.9485714,46.8754286 L54.9485714,46.8754286 L54.9485714,46.8754286 Z M64,0 C28.6537143,0 0,28.6537143 0,64 C0,99.3462857 28.6537143,128 64,128 C99.3462857,128 128,99.3462857 128,64 C128,28.6537143 99.3462857,0 64,0 L64,0 L64,0 Z M64,123.428571 C31.1794286,123.428571 4.57142857,96.8205714 4.57142857,64 C4.57142857,31.1794286 31.1794286,4.57142857 64,4.57142857 C96.8205714,4.57142857 123.428571,31.1794286 123.428571,64 C123.428571,96.8205714 96.8205714,123.428571 64,123.428571 L64,123.428571 L64,123.428571 Z" id="Shape"></path>
                            </g>
                        </g>
                    </g>
                </g>
            </g>
        </g>
    </g>
</svg>