<?xml version="1.0" encoding="UTF-8" standalone="no"?>
<svg width="128px" height="128px" viewBox="0 0 128 128" version="1.1" xmlns="http://www.w3.org/2000/svg" xmlns:xlink="http://www.w3.org/1999/xlink" xmlns:sketch="http://www.bohemiancoding.com/sketch/ns">
    <!-- Generator: Sketch 3.1.1 (8761) - http://www.bohemiancoding.com/sketch -->
    <title>github</title>
    <desc>Created with Sketch.</desc>
    <defs></defs>
    <g id="Page-1" stroke="none" stroke-width="1" fill="none" fill-rule="evenodd" sketch:type="MSPage">
        <g id="github" sketch:type="MSArtboardGroup" fill="#000000">
            <path d="M64.0845623,-0.318859429 C28.7382766,-0.318859429 0.0845622857,28.3348549 0.0845622857,63.6811406 C0.0845622857,99.029712 28.7382766,127.681141 64.0845623,127.681141 C99.430848,127.681141 128.084562,99.029712 128.084562,63.6811406 C128.084562,28.3348549 99.430848,-0.318859429 64.0845623,-0.318859429 L64.0845623,-0.318859429 L64.0845623,-0.318859429 Z M80.8845623,120.663998 C79.4057051,120.270855 78.822848,118.977141 78.822848,117.811426 C78.822848,115.852569 78.8959909,109.406855 78.8959909,101.420569 C78.8959909,95.8479977 76.9942766,92.2022834 74.8617051,90.357712 C88.102848,88.8788549 102.002277,83.829712 102.002277,60.8788549 C102.002277,54.3554263 99.702848,49.0228549 95.8925623,44.8468549 C96.5051337,43.3359977 98.5439909,37.2628549 95.3005623,29.0365691 C95.3005623,29.0365691 90.3199909,27.429712 78.9714194,35.1599977 C74.2239909,33.8365691 69.1382766,33.173712 64.0891337,33.1508549 C59.0354194,33.173712 53.9497051,33.8365691 49.2091337,35.1599977 C37.8537051,27.429712 32.8639909,29.0365691 32.8639909,29.0365691 C29.6297051,37.2628549 31.670848,43.3359977 32.2811337,44.8468549 C28.4777051,49.0228549 26.1622766,54.3554263 26.1622766,60.8788549 C26.1622766,83.7725691 40.038848,88.8971406 53.2365623,90.405712 C51.5382766,91.8982834 50.0022766,94.5314263 49.462848,98.3919977 C46.0754194,99.9211406 37.4651337,102.556569 32.1645623,93.4274263 C32.1645623,93.4274263 29.0239909,87.6925691 23.0605623,87.2719977 C23.0605623,87.2719977 17.254848,87.1965691 22.6514194,90.9039977 C22.6514194,90.9039977 26.5485623,92.741712 29.2502766,99.6422834 C29.2502766,99.6422834 32.7382766,111.260569 49.2731337,107.649141 C49.302848,112.636569 49.3531337,116.391998 49.3531337,117.811426 C49.3531337,118.972569 48.758848,120.266283 47.2731337,120.659426 C22.6559909,113.406855 4.66970514,90.6754263 4.65599086,63.7108549 C4.81599086,30.8491406 31.3577051,4.25714057 64.0799909,4.25714057 C96.8159909,4.25714057 123.359991,30.8582834 123.510848,63.7268549 C123.490277,90.6891406 105.503991,113.415998 80.8845623,120.663998 L80.8845623,120.663998 L80.8845623,120.663998 Z" id="Shape" sketch:type="MSShapeGroup"></path>
        </g>
    </g>
</svg>