<?xml version="1.0" encoding="UTF-8" standalone="no"?>
<svg width="128px" height="128px" viewBox="0 0 128 128" version="1.1" xmlns="http://www.w3.org/2000/svg" xmlns:xlink="http://www.w3.org/1999/xlink" xmlns:sketch="http://www.bohemiancoding.com/sketch/ns">
    <!-- Generator: Sketch 3.1.1 (8761) - http://www.bohemiancoding.com/sketch -->
    <title>instagram</title>
    <desc>Created with Sketch.</desc>
    <defs></defs>
    <g id="Page-1" stroke="none" stroke-width="1" fill="none" fill-rule="evenodd" sketch:type="MSPage">
        <g id="instagram" sketch:type="MSArtboardGroup" fill="#000000">
            <path d="M92.1302857,27.4262857 L35.8605714,27.4262857 C31.2022857,27.4262857 27.424,31.2022857 27.424,35.8628571 L27.424,92.1257143 C27.424,96.7885714 31.2022857,100.566857 35.8605714,100.566857 L92.128,100.566857 C96.7885714,100.566857 100.566857,96.7885714 100.566857,92.1257143 L100.566857,35.8628571 C100.569143,31.2022857 96.7908571,27.4262857 92.1302857,27.4262857 L92.1302857,27.4262857 L92.1302857,27.4262857 Z M63.9954286,49.9314286 C71.7645714,49.9314286 78.0617143,56.2285714 78.0617143,63.9954286 C78.0617143,71.7622857 71.7645714,78.0617143 63.9954286,78.0617143 C56.2285714,78.0617143 49.9291429,71.7622857 49.9291429,63.9954286 C49.9291429,56.2285714 56.2285714,49.9314286 63.9954286,49.9314286 L63.9954286,49.9314286 L63.9954286,49.9314286 Z M92.1302857,89.3165714 C92.1302857,90.8662857 90.8708571,92.1257143 89.3165714,92.1257143 L38.6788571,92.1257143 C37.1222857,92.1257143 35.8628571,90.864 35.8628571,89.3165714 L35.8628571,58.368 L42.2308571,58.368 C41.7668571,60.1691429 41.4925714,62.0502857 41.4925714,63.9954286 C41.4925714,76.4274286 51.568,86.5028571 63.9977143,86.5028571 C76.4274286,86.5028571 86.5028571,76.4297143 86.5028571,63.9954286 C86.5028571,62.0502857 86.2308571,60.1691429 85.7668571,58.368 L92.1325714,58.368 L92.1325714,89.3165714 L92.1302857,89.3165714 L92.1302857,89.3165714 Z M92.1302857,47.1177143 C92.1302857,48.6697143 90.8708571,49.9291429 89.3165714,49.9291429 L80.88,49.9291429 C79.3234286,49.9291429 78.0662857,48.6674286 78.0662857,47.1177143 L78.0662857,38.6765714 C78.0662857,37.1245714 79.3257143,35.8651429 80.88,35.8651429 L89.3165714,35.8651429 C90.8731429,35.8651429 92.1302857,37.1268571 92.1302857,38.6765714 L92.1302857,47.1177143 L92.1302857,47.1177143 Z M64,0 C28.6537143,0 0,28.6537143 0,64 C0,99.3462857 28.6537143,128 64,128 C99.3462857,128 128,99.3462857 128,64 C128,28.6537143 99.3462857,0 64,0 L64,0 L64,0 Z M64,123.428571 C31.1794286,123.428571 4.57142857,96.8205714 4.57142857,64 C4.57142857,31.1794286 31.1794286,4.57142857 64,4.57142857 C96.8205714,4.57142857 123.428571,31.1794286 123.428571,64 C123.428571,96.8205714 96.8205714,123.428571 64,123.428571 L64,123.428571 L64,123.428571 Z" id="Shape" sketch:type="MSShapeGroup"></path>
        </g>
    </g>
</svg>