<?xml version="1.0" encoding="UTF-8" standalone="no"?>
<svg width="128px" height="128px" viewBox="0 0 128 128" version="1.1" xmlns="http://www.w3.org/2000/svg" xmlns:xlink="http://www.w3.org/1999/xlink" xmlns:sketch="http://www.bohemiancoding.com/sketch/ns">
    <!-- Generator: Sketch 3.1.1 (8761) - http://www.bohemiancoding.com/sketch -->
    <title>twitter</title>
    <desc>Created with Sketch.</desc>
    <defs></defs>
    <g id="Page-1" stroke="none" stroke-width="1" fill="none" fill-rule="evenodd" sketch:type="MSPage">
        <g id="twitter" sketch:type="MSArtboardGroup" fill="#000000">
            <path d="M100.923419,35.0594263 C98.022848,36.7805691 94.8137051,38.0285691 91.3942766,38.7028549 C88.6559909,35.7862834 84.7565623,33.9622834 80.4411337,33.9622834 C72.1531337,33.9622834 65.4354194,40.6799977 65.4354194,48.9679977 C65.4354194,50.1451406 65.5679909,51.2902834 65.8239909,52.389712 C53.350848,51.7634263 42.294848,45.7862834 34.8937051,36.7119977 C33.6022766,38.9245691 32.8617051,41.5051406 32.8617051,44.2548549 C32.8617051,49.461712 35.3462766,54.053712 39.3737051,56.7462834 C36.9142766,56.6685691 35.0239909,55.9919977 32.4137051,54.869712 L32.4137051,55.0571406 C32.4137051,62.3302834 37.750848,68.3942834 44.6125623,69.7725691 C43.3554194,70.1131406 42.1097051,70.2982834 40.742848,70.2982834 C39.7759909,70.2982834 38.8777051,70.1999977 37.9611337,70.0262834 C39.8697051,75.9874263 45.4331337,80.3279977 51.9999909,80.4514263 C46.8639909,84.4742834 40.4045623,86.8765691 33.3737051,86.8765691 C32.1599909,86.8765691 30.9714194,86.805712 29.798848,86.6639977 C36.438848,90.9199977 44.3291337,93.4045691 52.8045623,93.4045691 C80.4045623,93.4045691 95.4971337,70.5405691 95.4971337,50.709712 C95.4971337,50.0582834 95.4879909,49.4114263 95.4582766,48.7668549 C98.390848,46.6502834 100.932562,44.0079977 102.943991,40.9999977 C100.253705,42.1931406 97.3599909,42.9999977 94.3245623,43.3634263 C97.4239909,41.5028549 99.8034194,38.5634263 100.923419,35.0594263 L100.923419,35.0594263 L100.923419,35.0594263 Z M64.0845623,-0.318859429 C28.7382766,-0.318859429 0.0845622857,28.3348549 0.0845622857,63.6811406 C0.0845622857,99.0274263 28.7382766,127.681141 64.0845623,127.681141 C99.430848,127.681141 128.084562,99.0274263 128.084562,63.6811406 C128.084562,28.3348549 99.430848,-0.318859429 64.0845623,-0.318859429 L64.0845623,-0.318859429 L64.0845623,-0.318859429 Z M64.0845623,123.109712 C31.2639909,123.109712 4.65599086,96.501712 4.65599086,63.6811406 C4.65599086,30.8605691 31.2639909,4.25256914 64.0845623,4.25256914 C96.9051337,4.25256914 123.513134,30.8605691 123.513134,63.6811406 C123.513134,96.501712 96.9051337,123.109712 64.0845623,123.109712 L64.0845623,123.109712 L64.0845623,123.109712 Z" id="Shape" sketch:type="MSShapeGroup"></path>
        </g>
    </g>
</svg>