<?xml version="1.0" encoding="UTF-8"?>
<svg width="128px" height="128px" viewBox="0 0 128 128" version="1.1" xmlns="http://www.w3.org/2000/svg" xmlns:xlink="http://www.w3.org/1999/xlink">
    <title>website</title>
    <defs>
        <circle id="path-1" cx="64" cy="64" r="64"></circle>
        <linearGradient x1="75.0659322%" y1="100%" x2="75.0659322%" y2="0%" id="linearGradient-3">
            <stop stop-color="#FFFFFF" stop-opacity="0" offset="0%"></stop>
            <stop stop-color="#FFFFFF" offset="100%"></stop>
        </linearGradient>
    </defs>
    <g id="website" stroke="none" stroke-width="1" fill="none" fill-rule="evenodd">
        <g id="icon">
            <mask id="mask-2" fill="white">
                <use xlink:href="#path-1"></use>
            </mask>
            <use id="Oval" fill="#D8D8D8" xlink:href="#path-1"></use>
            <rect id="Rectangle" fill="#388BCD" mask="url(#mask-2)" x="0" y="0" width="128" height="128"></rect>
            <rect id="Rectangle-Copy" fill-opacity="0.5" fill="url(#linearGradient-3)" style="mix-blend-mode: soft-light;" mask="url(#mask-2)" x="0" y="0" width="128" height="128"></rect>
            <g id="Border" mask="url(#mask-2)" stroke="#000000" stroke-opacity="0.1" stroke-width="4">
                <circle id="path-8-copy" cx="64" cy="64" r="62"></circle>
            </g>
        </g>
        <path d="M72.4522003,23.5 C80.761359,23.5 87.4546771,25.8371727 92.5886045,30.37724 C97.7958823,34.982173 100.5,41.5073719 100.5,50.0546218 C100.5,55.5982284 99.3605893,60.8794472 97.0831149,65.8985703 C94.7817551,70.9703322 91.749198,75.0259448 88.0163463,78.0899531 C85.37893,80.2548034 82.6390671,81.676214 79.8062867,82.3832822 L79.491,82.457 L79.5950119,82.5701851 C79.8706181,82.8839121 80.1266612,83.228338 80.3622972,83.6043874 L80.5351847,83.8923683 C81.2469291,85.1300402 81.6532625,86.6905582 81.6532625,88.605042 C81.6532625,92.1116481 80.066258,95.118936 76.672736,97.5247645 C73.8193312,99.5476783 70.3446323,101.071636 66.2333531,102.064583 C62.2588688,103.024491 58.4680581,103.5 54.861912,103.5 C46.3366405,103.5 39.5441502,101.176197 34.4192485,96.6821964 C29.2751884,92.1713955 26.5,84.7944095 26.5,74.3193277 C26.5,65.2884344 28.5355703,56.9015445 32.5970125,49.1562288 C36.6739098,41.3814395 42.2068427,35.1782745 49.1842662,30.5362076 C56.2351553,25.845264 63.9911752,23.5 72.4522003,23.5 Z M73.2898331,36.0630252 C67.8575079,36.0630252 62.6913443,37.8353446 57.7751778,41.326199 C52.7161293,44.9185105 48.6659474,49.6365702 45.6114614,55.4687088 C42.5598934,61.295276 41.0280728,67.3677624 41.0280728,73.6890756 C41.0280728,79.3707738 42.0895529,83.6220635 44.549437,86.2749733 C46.9408468,88.8540356 50.6409118,89.9915966 55.4901366,89.9915966 C59.3784298,89.9915966 63.0133187,89.2295315 66.3923751,87.6944545 C69.0352736,86.4938077 71.2667805,84.9609114 73.0757422,83.082019 L73.375,82.761 L73.1922347,82.7341088 C71.387408,82.4403482 69.8523249,81.7881337 68.5695568,80.8212003 L68.3163622,80.6236303 C67.6388987,80.0765951 67.0599478,79.4548764 66.5843797,78.7558243 C63.0412955,82.3104394 59.310903,83.9621849 55.4901366,83.9621849 C51.9723031,83.9621849 49.2821666,82.6732704 47.3507981,80.2282016 C45.6022606,78.0145926 44.6138088,74.8517932 44.6138088,70.6428571 C44.6138088,66.2361724 45.6240469,61.8070192 47.6696396,57.3605975 C49.7060909,52.9340462 52.3186091,49.2919704 55.4851487,46.4177597 C58.9639227,43.2601395 62.5467143,41.7773109 66.1699545,41.7773109 C67.6347368,41.7773109 68.9481264,42.0861734 70.1178829,42.6729393 C70.4627727,42.8459407 70.8148375,43.0575207 71.1725634,43.3097865 L72.1675677,41.8418224 L84.3979816,43.1506103 L78.8650714,64.3883276 C78.7714622,64.8205799 78.5048162,65.8625247 78.059271,67.5129238 C77.6759139,68.9329644 77.4650986,70.1150116 77.4650986,71.0630252 C77.4650986,71.3030567 77.4774034,71.5271004 77.5116986,71.7325053 C78.2908248,71.4405553 79.0857787,70.4464728 80.0428831,69.2729033 C81.7726231,67.1519535 83.2286307,64.3953724 84.4449986,61.0235086 C85.6734325,57.618197 86.2860395,54.0667537 86.2860395,50.3697479 C86.2860395,45.6930026 85.2498389,42.0568897 82.9297265,39.5781465 C80.6701472,37.1640752 77.4219205,36.0630252 73.2898331,36.0630252 Z M67.764,52.722 L67.7113489,52.7435576 C66.9142518,53.0864515 66.1413664,53.8682943 65.3158088,54.8589127 C63.6964722,56.8020173 62.3573969,59.1806429 61.2783406,61.9825082 C60.2139827,64.7462075 59.6654021,67.351044 59.6654021,69.802521 C59.6654021,70.6468391 59.697978,71.3269742 59.9924127,71.7142857 C60.632207,71.7142857 61.2719117,71.4906011 61.9275227,71.1086952 C62.4757638,70.7893342 62.9169161,70.4264653 63.2128006,69.9851643 L67.764,52.722 Z" id="Shape" stroke="#0067C0" stroke-width="5" fill="#FFFFFF" fill-rule="nonzero"></path>
    </g>
</svg>